# xmcd CD database file
#
# Track frame offsets:
#	150
#	20736
#	42512
#	66268
#	89997
#	109909
#	133956
#	154396
#	173372
#	195419
#
# Disc length: 2922 seconds
#
# Revision: 0
# Processed by: cddbd v1.5.2PL0 Copyright (c) Steve Scherf et al.
# Submitted via: CDex 1.75
#
DISCID=920b680a
DTITLE=Strange Moon - Book
DYEAR=2010
DGENRE=Country
TTITLE0=White Smoke
TTITLE1=Mary Goes Around
TTITLE2=My Little Acolyte
TTITLE3=A New Love
TTITLE4=Red Fingernails
TTITLE5=Room To The Tracks
TTITLE6=Kiss'em All
TTITLE7=Hall Of Fame
TTITLE8=Mara
TTITLE9=But You Don't
EXTD=YEAR: 2010
EXTT0=
EXTT1=
EXTT2=
EXTT3=
EXTT4=
EXTT5=
EXTT6=
EXTT7=
EXTT8=
EXTT9=
PLAYORDER=
